<svg id="Calque_1" data-name="Calque 1" xmlns="http://www.w3.org/2000/svg" viewBox="0 0 512 512"><defs><style>.cls-1{fill:#fff;}</style></defs><title>Plan de travail 1</title><path class="cls-1" d="M332.8,320h38.4c6.4,0,12.8-6.4,12.8-12.8V172.8c0-6.4-6.4-12.8-12.8-12.8H332.8c-6.4,0-12.8,6.4-12.8,12.8V307.2C320,313.6,326.4,320,332.8,320Zm96,0h38.4c6.4,0,12.8-6.4,12.8-12.8V76.8c0-6.4-6.4-12.8-12.8-12.8H428.8c-6.4,0-12.8,6.4-12.8,12.8V307.2C416,313.6,422.4,320,428.8,320Zm-288,0h38.4c6.4,0,12.8-6.4,12.8-12.8V236.8c0-6.4-6.4-12.8-12.8-12.8H140.8c-6.4,0-12.8,6.4-12.8,12.8v70.4C128,313.6,134.4,320,140.8,320Zm96,0h38.4c6.4,0,12.8-6.4,12.8-12.8V108.8c0-6.4-6.4-12.8-12.8-12.8H236.8c-6.4,0-12.8,6.4-12.8,12.8V307.2C224,313.6,230.4,320,236.8,320ZM496,384H64V80A16,16,0,0,0,48,64H16A16,16,0,0,0,0,80V416a32,32,0,0,0,32,32H496a16,16,0,0,0,16-16V400A16,16,0,0,0,496,384Z"/></svg>